PathFileType	3	(X/Y/Z)	D:\minhoCalibration\240510\subject1_KPNP\preferred\preferred01.trc
DataRate	CameraRate	NumFrames	NumMarkers	Units	OrigDataRate	OrigDataStartFrame	OrigNumFrames
200.0	200.0	30	10	mm	200.0	356	227	
Frame#	Time	Left_Ankle_Outer1			Left_Ankle_Inner1			Left_Knee_Outer1			Left_Knee_Inner1			Left_Wrist1			Right_Wrist1			Right_Knee_Inner1			Right_Knee_Outer1			Right_Ankle_Inner1			Right_Ankle_Outer1			
		X1	Y1	Z1	X2	Y2	Z2	X3	Y3	Z3	X4	Y4	Z4	X5	Y5	Z5	X6	Y6	Z6	X7	Y7	Z7	X8	Y8	Z8	X9	Y9	Z9	X10	Y10	Z10	
356	1.77	-472.64087	119.00758	-564.98895	-524.63727	123.1972	-542.40125	-417.62732	541.82184	-386.11249	-527.91028	510.85513	-403.74045	-420.8364	956.89453	-572.91956	-713.26782	971.70239	-767.41498	-777.93011	497.12604	-732.30023	-824.44373	548.20929	-832.02539	-652.23602	180.68561	-1020.7582	-691.15112	210.77783	-1100.4697
357	1.775	-470.19232	118.66161	-565.20166	-522.2052	122.82565	-543.60449	-414.65079	541.26434	-386.49774	-524.86621	510.51443	-404.5123	-416.15952	960.27094	-569.53333	-711.62732	973.45435	-759.99115	-783.52734	500.67746	-715.88934	-831.44397	551.14874	-814.41827	-658.01624	189.64017	-1012.4688	-698.43835	220.89203	-1090.6025
358	1.78	-467.96509	118.34386	-565.27838	-520.0426	122.81134	-544.33691	-411.72809	540.72382	-387.51395	-521.49457	510.35315	-405.30197	-411.43143	963.89392	-566.34265	-709.82281	975.03461	-752.52161	-788.39301	504.2926	-698.37744	-838.19202	554.6394	-796.26593	-664.31378	199.72432	-1003.4791	-705.90375	232.5294	-1080.7228
359	1.785	-466.05115	118.20911	-565.37793	-518.34076	123.15534	-545.13727	-408.33679	540.47711	-388.54025	-517.93048	510.52325	-406.13596	-406.63135	967.59192	-563.40063	-708.00665	976.29419	-744.69067	-792.88306	509.00174	-680.39618	-844.27576	558.48273	-777.57324	-669.18475	210.93311	-994.50482	-713.92828	244.91341	-1070.233
360	1.79	-464.27872	118.13228	-565.35626	-516.47986	123.27361	-545.08002	-404.43057	540.5816	-389.81516	-514.2301	511.06976	-406.84613	-401.75159	971.42456	-560.78265	-706.51068	978.60614	-737.09631	-796.69623	514.37872	-662.02771	-849.86469	562.67456	-758.19678	-674.15295	223.02155	-984.98114	-721.85065	257.70959	-1058.7073
361	1.795	-462.79135	118.19469	-565.3324	-514.98993	123.94756	-545.77686	-400.93759	540.79614	-391.73709	-510.42194	511.98865	-407.56506	-396.75198	975.24005	-558.45703	-704.81427	981.02869	-729.39795	-799.13519	519.8609	-643.04419	-854.72552	567.25488	-738.00537	-678.67413	235.86497	-975.2157	-729.50128	270.90958	-1046.5251
362	1.8	-461.21848	118.58128	-565.34851	-513.43085	124.63605	-545.74646	-397.11026	541.33154	-393.79916	-506.48843	513.13928	-408.45142	-391.88995	979.04297	-556.82355	-703.97107	983.14795	-720.98944	-800.28888	525.61859	-623.42438	-859.01294	572.20441	-717.19495	-682.3913	249.85742	-964.87	-736.77362	284.40411	-1033.4202
363	1.805	-459.83157	119.0406	-565.3172	-511.81586	125.33533	-545.49274	-393.06122	542.17938	-396.2348	-502.43616	514.53247	-409.48944	-386.67014	982.84717	-555.68542	-703.06677	986.34259	-712.25226	-800.4848	531.53876	-603.74188	-862.5332	577.36316	-695.97235	-685.45837	264.9147	-954.18671	-743.73004	298.52127	-1020.2055
364	1.81	-458.53091	119.58688	-565.20044	-510.16199	126.29086	-545.45276	-388.92908	543.17639	-398.84036	-498.39374	516.20721	-410.66193	-381.19571	986.57245	-555.47955	-702.4632	989.68561	-702.73535	-799.75464	537.56683	-584.26019	-865.23346	582.82245	-674.05627	-687.50684	281.14716	-942.54688	-750.11096	312.67377	-1006.142
365	1.815	-457.24609	120.33284	-565.14948	-508.83615	127.59377	-545.72705	-384.60739	544.35394	-401.71277	-493.68695	517.59052	-413.3902	-375.43625	990.06201	-556.46509	-702.40558	993.26068	-692.31116	-797.71338	543.552	-564.07147	-866.97369	588.37695	-651.7431	-688.91431	298.51859	-930.29529	-755.20477	327.41907	-991.3678
366	1.82	-456.01376	121.17496	-565.21606	-507.36917	128.50639	-545.16815	-380.14902	545.62842	-404.82074	-489.38907	519.43292	-414.94113	-369.34619	992.96942	-558.70343	-702.25977	997.82532	-681.51129	-794.77075	549.49707	-543.54102	-868.00482	594.09497	-628.37115	-689.74451	315.87128	-916.77551	-758.43677	343.13663	-975.97052
367	1.825	-454.84534	122.15498	-565.12476	-506.06717	129.78172	-544.90894	-375.5293	547.0097	-408.18549	-484.99539	521.34137	-416.72244	-363.60196	995.4892	-561.78955	-702.46423	1002.336	-669.65063	-791.00623	555.51349	-522.73779	-868.06213	599.92407	-605.19855	-690.26898	333.29044	-901.9696	-760.10004	359.99045	-959.62427
368	1.83	-453.83612	123.07558	-565.0979	-504.85284	131.26031	-544.57605	-370.66315	548.45715	-411.92087	-480.47076	523.30609	-418.45273	-357.72113	997.76184	-566.24225	-701.9173	1007.2375	-657.84601	-786.41742	561.6828	-501.65421	-867.75531	606.44586	-580.91968	-690.36285	350.66696	-886.43457	-760.9126	377.95615	-942.57471
369	1.835	-452.79919	124.24216	-565.06403	-503.39465	132.77057	-543.99701	-365.77029	549.9931	-415.88223	-475.84445	525.30811	-420.0611	-351.69995	999.76288	-571.86163	-701.27283	1011.9808	-645.52582	-780.88702	568.01886	-480.28378	-866.33099	613.28174	-556.71277	-689.64441	368.89255	-869.80237	-761.20587	396.52615	-924.6142
370	1.84	-451.79666	125.49205	-564.92877	-502.19913	134.43414	-543.29626	-360.78036	551.50653	-420.11441	-471.69702	527.99774	-420.02515	-346.59033	1001.5809	-577.82513	-699.81305	1016.8202	-633.59943	-774.67633	575.01587	-458.75546	-863.85284	620.6402	-531.95184	-689.45593	386.61267	-852.75342	-761.31165	415.854	-905.96039
371	1.845	-450.98364	126.80206	-564.78717	-500.94742	136.16164	-542.73114	-355.94302	553.1593	-424.45129	-467.04181	530.0553	-421.46362	-341.82968	1003.4695	-584.24915	-697.9632	1021.7464	-621.45563	-767.09381	582.51898	-436.51447	-860.32233	628.73553	-506.49469	-689.11627	404.75684	-835.11096	-761.40448	435.7818	-886.61011
372	1.85	-450.09033	128.21965	-564.67218	-499.88254	138.00781	-541.841	-351.02747	554.91736	-428.90732	-461.84558	532.37555	-423.24771	-337.6525	1005.3837	-590.88867	-695.62244	1026.8484	-609.27789	-758.50745	590.76965	-414.51285	-855.54846	637.41394	-480.51532	-689.05841	423.12936	-817.05664	-762.01495	456.08914	-866.5835
373	1.855	-449.35959	129.86252	-564.47418	-498.69241	140.08076	-540.80273	-346.06973	556.74609	-433.48752	-456.29968	534.32367	-425.22565	-334.0668	1007.4062	-597.79968	-692.9469	1032.7158	-596.7782	-748.86792	599.87207	-392.75116	-849.56232	646.98413	-454.18799	-689.84174	441.91483	-798.95105	-763.29596	476.52386	-845.75751
374	1.86	-448.69168	131.46031	-564.15558	-497.64926	142.2195	-539.73285	-341.1134	558.59131	-438.09482	-451.43518	536.65137	-426.12863	-330.96417	1009.6219	-604.91284	-689.4491	1037.808	-585.29425	-737.76544	609.75793	-370.87766	-842.15546	656.98022	-427.81839	-690.41846	461.09641	-780.84821	-765.40015	497.34055	-824.34839
375	1.865	-447.95508	133.28549	-563.82745	-496.49896	144.48178	-538.50146	-336.10391	560.53961	-442.79776	-445.43741	538.59277	-428.25165	-328.19437	1012.0344	-612.04645	-685.86761	1044.0724	-573.2901	-725.46173	620.24091	-349.19449	-833.40869	667.52106	-401.16769	-692.49255	480.78467	-761.88483	-768.44434	518.25165	-802.26294
376	1.87	-447.4534	135.12097	-563.43243	-495.51337	146.85179	-537.12122	-331.16846	562.4707	-447.53448	-439.8808	540.86353	-429.42654	-326.40488	1014.347	-619.16107	-681.5929	1049.6854	-562.41608	-712.02759	631.28534	-327.90591	-823.29852	678.73267	-374.59695	-693.23108	501.33032	-743.56281	-772.46252	539.31299	-779.64417
377	1.875	-446.03882	137.8231	-563.70135	-494.60187	149.36726	-535.60602	-326.22354	564.4176	-452.25461	-434.2518	543.13226	-430.44785	-324.75125	1016.7552	-626.34967	-677.30945	1056.0802	-551.6358	-697.84094	643.38361	-307.05701	-811.75409	690.60352	-348.13037	-697.38928	521.5451	-723.84814	-776.72809	560.31049	-756.224
378	1.88	-446.66577	139.27551	-562.6521	-493.77048	151.85017	-534.11914	-321.33289	566.10516	-457.00348	-429.48837	545.58063	-430.24216	-323.61426	1019.0772	-633.51642	-670.62921	1061.76	-542.23474	-682.71027	656.021	-286.63174	-798.68597	703.21674	-321.9776	-699.41876	542.78912	-704.80853	-781.74457	581.45605	-732.15674
379	1.885	-446.76837	141.26871	-562.185	-493.06339	154.42276	-532.43201	-316.52643	567.92084	-461.63693	-422.8205	547.56952	-432.03079	-323.55377	1020.98	-640.39893	-666.13184	1068.1732	-532.10962	-666.74011	669.31152	-266.68472	-784.13257	716.70892	-296.17889	-704.47961	563.39252	-683.94751	-786.97693	602.64276	-707.30188
380	1.89	-447.16824	143.33095	-561.73395	-491.93369	156.17975	-528.58636	-311.71912	569.62732	-466.3541	-417.474	549.89062	-431.56232	-323.07886	1022.9168	-647.7829	-660.29486	1074.7296	-523.45978	-649.56616	683.10486	-247.42249	-768.62952	731.0116	-271.24521	-707.64478	584.64117	-663.31079	-792.06006	623.67517	-681.13361
381	1.895	-447.89017	145.50829	-561.28992	-491.88913	159.15807	-526.42487	-307.17917	570.95233	-470.83279	-411.53876	551.51581	-431.6972	-323.48993	1024.5367	-654.94196	-654.93475	1081.2087	-514.86127	-631.72583	697.36426	-229.32271	-751.90912	746.16699	-247.10693	-710.84949	605.03949	-642.54395	-797.38647	645.53235	-655.01953
382	1.9	-449.01154	147.59203	-560.76025	-491.82962	161.25754	-523.88104	-302.91769	572.16461	-475.27313	-404.54492	553.30414	-430.09912	-324.32639	1025.9275	-662.14044	-648.56006	1087.5427	-507.45917	-613.95874	712.71472	-210.91425	-734.00739	762.16687	-224.07408	-715.34711	624.67297	-619.70416	-801.25726	665.73743	-627.33698
383	1.905	-450.49844	149.50029	-559.87579	-492.00461	163.80589	-521.81146	-299.03226	573.24219	-479.67017	-399.06912	555.42236	-430.55676	-325.20367	1027.0232	-669.68365	-642.9444	1094.2617	-499.42093	-594.57446	727.76135	-194.27995	-714.76331	778.91205	-202.04942	-719.84521	643.84326	-596.3313	-804.72601	686.07471	-599.01471
384	1.91	-452.12854	151.42924	-559.02283	-492.43781	165.92751	-519.35706	-295.62161	574.02142	-483.99261	-393.11481	556.51984	-430.22061	-327.54749	1027.5326	-676.50677	-637.11407	1100.8612	-491.96051	-574.43048	743.24835	-178.66634	-694.85431	796.96875	-180.23219	-724.39124	662.4137	-572.18274	-808.38287	707.12836	-570.46045
385	1.915	-453.8956	153.05727	-557.84717	-492.97198	167.70674	-516.59589	-293.16437	574.6062	-487.93729	-387.33295	557.49164	-429.77328	-330.0994	1028.1534	-683.17383	-630.57092	1106.7545	-485.80487	-553.63843	759.09332	-164.38084	-672.70929	815.81543	-160.54588	-728.84845	680.48566	-547.24609	-811.29498	727.67853	-540.93054
